<?xml version="1.0" encoding="utf-8"?>
<svg width="35px" height="35px" viewBox="0 0 35 35" version="1.1" xmlns:xlink="http://www.w3.org/1999/xlink" xmlns="http://www.w3.org/2000/svg">
  <defs>
    <path d="M0 0L35 0L35 35L0 35L0 0Z" id="path_1" />
    <clipPath id="mask_1">
      <use xlink:href="#path_1" />
    </clipPath>
  </defs>
  <g id="free-icon-rat-2224677">
    <path d="M0 0L35 0L35 35L0 35L0 0Z" id="Background" fill="none" fill-rule="evenodd" stroke="none" />
    <g clip-path="url(#mask_1)">
      <path d="M31.7538 3.86465C29.4617 1.30035 26.1276 6.67572e-05 21.8443 6.67572e-05C19.8529 -0.00467787 17.8691 0.243773 15.9404 0.739444C14.2537 -0.203335 12.2089 -0.247033 10.4834 0.622825C8.75796 1.49268 7.57704 3.16255 7.33186 5.07926C2.38921 9.01111 0.220119 13.7799 0.12715 13.9879C-0.0745802 14.4388 -0.0343314 14.9611 0.234093 15.3758C0.502517 15.7905 0.962621 16.0411 1.4566 16.0417L32.0382 16.0417C32.0382 17.6494 30.7359 18.9547 29.127 18.9584L17.4755 18.9584C14.2576 18.9643 11.6518 21.5739 11.6505 24.7917L14.563 24.7917C14.563 23.1841 15.8653 21.8788 17.4742 21.8751L29.1257 21.8751C32.3436 21.8691 34.9494 19.2596 34.9507 16.0417L34.9507 14.6543C35.0258 13.8398 35.4223 7.96949 31.7538 3.86465L31.7538 3.86465ZM8.55595 11.6667C7.96592 11.6676 7.43348 11.3129 7.20707 10.768C6.98066 10.2231 7.10489 9.59551 7.52179 9.17798C7.9387 8.76044 8.56612 8.63527 9.11133 8.86086C9.65655 9.08645 10.0121 9.61835 10.0121 10.2084C10.0127 11.0131 9.36081 11.666 8.55604 11.6667L8.55595 11.6667ZM10.1942 5.8334C10.1859 4.78736 10.7393 3.81722 11.6438 3.2918C12.5483 2.76637 13.6652 2.76637 14.5697 3.29179C15.4743 3.81721 16.0276 4.78735 16.0193 5.83339L10.1942 5.8334Z" transform="translate(0.024513245 8.749931)" id="Shape" fill="#000000" fill-rule="evenodd" stroke="none" />
    </g>
  </g>
</svg>